<svg xmlns="http://www.w3.org/2000/svg" width="305" height="183" style=""><rect id="backgroundrect" width="100%" height="100%" x="0" y="0" fill="none" stroke="none" class="" style=""/><!--! Font Awesome Pro 6.1.1 by @fontawesome - https://fontawesome.com License - https://fontawesome.com/license (Commercial License) Copyright 2022 Fonticons, Inc. --><g class="currentLayer" style=""><title>Layer 1</title><path d="M5.960464477539063e-8,152.8240491504665 l30.499997065413915,0.019253123147542562 c8.458983561110891,0 15.249998532706957,-6.810077469761951 15.249998532706957,-15.26429540633137 V31.014685870469705 L5.960464477539063e-8,31.014685870469705 V152.8240491504665 zM22.874997858665097,122.41936457588204 c4.16992147378706,0 7.6249992663534805,3.3921715486190047 7.6249992663534805,7.620233641812008 c0,4.1661089741538815 -3.4550777925664202,7.620233641812008 -7.6249992663534805,7.620233641812008 S15.249998592311613,134.1904571933152 15.249998592311613,130.04436384223555 C15.249998592311613,125.80295800032638 18.705076384877998,122.41936457588204 22.874997858665097,122.41936457588204 zM166.2249840661105,0.3717200688116691 c-3.7843824483820603,0 -7.4629680319434675,1.4149139263627175 -10.255624013245429,3.9688121181369858 L109.08514581387408,47.21780931147086 C109.03748956845936,47.31312180230027 109.03748956845936,47.40843429312967 108.94217707762994,47.40843429312967 C101.03124033878822,54.84280857782434 101.17420907503237,66.70921368608691 107.94139592392105,74.09593172536685 c6.076171290375428,6.24296814932691 18.767029444312502,8.397030442071769 26.749450551276297,1.3105467489045042 C134.7718620924024,75.33499410614931 134.81951833781704,75.33499410614931 134.86717458323176,75.2873378607346 l38.06780883726974,-34.83671539815245 c3.0976559519561007,-2.7978981682975794 7.982421106963798,-2.6191872479924196 10.77984271280723,0.4765624541470924 c2.8593747248825543,3.0957497021395124 2.6210934978090084,7.9204679879246775 -0.4765624541470924,10.77984271280723 l-12.447811302322055,11.375545780491095 L240.18747694973922,119.36936486934061 c1.3701170556728908,1.1894998855511427 2.6210934978090084,2.380906020918874 3.7529293264083528,3.6895465200067896 V30.44281092549319 c-19.529529370947845,-19.519998121864905 -45.97874557611147,-30.442809570916264 -73.58124292031107,-30.442809570916264 L166.2249840661105,0.3717200688116691 zM159.4577972172218,73.47640053497565 l-14.296873624412772,13.100701864503568 c-14.177733010876,12.919608131927676 -35.861324674568706,11.671014502062292 -48.514057832174004,-2.0830544870769407 C83.87499198949291,70.52171331926365 84.8757731432018,48.83812165557096 98.79139680429694,36.06624788442889 L137.7742055535291,0.3717200688116691 H134.6288933561583 C107.0835835064563,0.3717200688116691 80.58671105587797,11.370781510526555 61.09530668126189,30.824060888810877 L60.99999419043246,137.52639437234487 l8.697264788184437,0.017585154558027827 l43.12890210031186,38.9923399983151 c13.105467489045042,10.660702099270456 32.28710626846551,8.635311669145315 42.89062087323831,-4.4062964510440175 l8.635311669145315,7.262811801201688 c7.567811771855829,5.766405695179818 18.767029444312502,5.00390576854447 24.962341348224705,-2.559616941224033 l14.954529811135759,-18.395310730077767 l2.5610466285864746,2.1435779187536217 c6.552733744522521,5.242186995618017 16.145935946503492,4.290015212232127 21.445310436619156,-2.262718532290395 l4.545452687654968,-5.61390570985275 c5.2993744901156665,-6.552733744522521 4.306218335673127,-16.09827970108878 -2.2369841597664517,-21.411951064828866 L159.4577972172218,73.47640053497565 zM259.24997511562293,31.06234211588442 v106.55936474728986 c0,8.397030442071769 6.791014971596066,15.273826655414311 14.821092323974575,15.273826655414311 L304.9999707137438,152.87170539588124 V30.91937337964029 L259.24997511562293,31.06234211588442 zM282.12497291468344,137.62170686317427 c-4.16992147378706,0 -7.6249992663534805,-3.453171542749833 -7.6249992663534805,-7.620233641812008 c0,-4.229491780555446 3.4550777925664202,-7.620233641812008 7.6249992663534805,-7.620233641812008 S289.7499721810368,125.80295800032638 289.7499721810368,130.04436384223555 C289.7499721810368,134.1904571933152 286.3187225111777,137.62170686317427 282.12497291468344,137.62170686317427 z" id="svg_1" class="" fill="#6a6a6a" fill-opacity="1"/></g></svg>