<svg xmlns="http://www.w3.org/2000/svg" width="16" height="10" style=""><rect id="backgroundrect" width="100%" height="100%" x="0" y="0" fill="none" stroke="none" class="" style=""/><!--! Font Awesome Pro 6.1.1 by @fontawesome - https://fontawesome.com License - https://fontawesome.com/license (Commercial License) Copyright 2022 Fonticons, Inc. --><g class="currentLayer" style=""><title>Layer 1</title><path d="M-9.807953338381026e-9,8.145644476794924 l1.6256743587621214,0.001026206938968592 c0.45087062293793245,0 0.8128371793810605,-0.3629826029173555 0.8128371793810605,-0.8135992142367309 V1.6531075064887037 L-9.807953338381026e-9,1.6531075064887037 V8.145644476794924 zM1.2192557592636373,6.525050350403937 c0.222260166237009,0 0.4064185896905308,0.1808054700885744 0.4064185896905308,0.4061645780719738 c0,0.22205695694216385 -0.1841584234535217,0.4061645780719738 -0.4064185896905308,0.4061645780719738 S0.8128371695731058,7.152459048238693 0.8128371695731058,6.931468940094469 C0.8128371695731058,6.7053985995791106 0.9969955930266279,6.525050350403937 1.2192557592636373,6.525050350403937 zM8.85992524544561,0.019812799169885542 c-0.20171062629578138,0 -0.3977821946596072,0.07541604954944912 -0.5466330031337636,0.21154087593392124 L5.814325938952191,2.5167470095810813 C5.811785822766627,2.521827241952213 5.811785822766627,2.5269074743233437 5.806705590395495,2.5269074743233437 C5.385046303591572,2.923165599271613 5.392666652148268,3.555654529477498 5.753363150498618,3.9493725382401994 c0.3238648136596424,0.3327552203091218 1.000297753875818,0.44756847189669713 1.4257672149580916,0.06985319510306 C7.1834485629721705,4.0154155590649125 7.185988679157732,4.0154155590649125 7.1885287953433,4.012875442879346 l2.029044809029972,-1.8568249316486107 c0.16510755206177793,-0.1491302212545689 0.42546946108227457,-0.13960478555869726 0.5745742811749874,0.025401161855658248 c0.1524069711339489,0.1650059474143556 0.1397063902061199,0.42216731004103825 -0.025401161855658248,0.5745742811749874 l-0.6634783476697915,0.606325733494561 L12.802185565443747,6.3624829145277255 c0.0730283403350172,0.06340129999172282 0.1397063902061199,0.1269042046308684 0.2000341496133082,0.1966557950865054 V1.6226261122619139 c-1.0409396128448707,-1.0404315896077576 -2.4507040958338977,-1.6226262193394434 -3.921939390513618,-1.6226262193394434 L8.85992524544561,0.019812799169885542 zM8.499228747095259,3.9163510278278455 l-0.762034855669745,0.6982779394120426 c-0.7556845652058299,0.6886254979068939 -1.9114374296382757,0.6220744538450687 -2.5858382769059993,-0.11102847847108202 C4.47060447678788,3.758863824322763 4.523946916684761,2.6031109598903193 5.265660842869979,1.9223598221586813 L7.343475882662823,0.019812799169885542 H7.1758282144154695 C5.7076410591584334,0.019812799169885542 4.295336459983837,0.6060716147984753 3.256428940087419,1.6429470417464414 L3.2513487077162897,7.330267181228301 l0.4635712038657617,0.0009373028724737961 l2.298805147937062,2.0783230630299494 c0.6985319510305998,0.5682239907110728 1.7209287157208388,0.46026905282452574 2.2861045670092333,-0.23485914251741546 l0.46026905282452574,0.3871137066802303 c0.40337045026785207,0.3073540584534638 1.000297753875818,0.2667121994844107 1.3305128579993748,-0.13642964032673996 l0.7970884590305526,-0.9804848476284046 l0.13650584381230718,0.1142544260267506 c0.3492659755152999,0.2794127804122398 0.8605913636696986,0.2286612590246349 1.1430522835046164,-0.12060471649066502 l0.24227628177926763,-0.2992256866596536 c0.28246091983491906,-0.3492659755152999 0.22952489852772745,-0.8580512474841332 -0.11923305375045964,-1.1412742021747206 L8.499228747095259,3.9163510278278455 zM13.818232039670079,1.6556476226742705 v5.679699790925161 c0,0.44756847189669713 0.36196655644312853,0.8141072374738442 0.7899761337109679,0.8141072374738442 L16.256743577813253,8.148184592980492 V1.648027274117573 L13.818232039670079,1.6556476226742705 zM15.037487808741677,7.335347413599431 c-0.222260166237009,0 -0.4064185896905308,-0.18405681880609942 -0.4064185896905308,-0.4061645780719738 c0,-0.22543531146896667 0.1841584234535217,-0.4061645780719738 0.4064185896905308,-0.4061645780719738 S15.443906398432201,6.7053985995791106 15.443906398432201,6.931468940094469 C15.443906398432201,7.152459048238693 15.261018033071455,7.335347413599431 15.037487808741677,7.335347413599431 z" id="svg_1" class="" fill="#00a2e8" fill-opacity="1"/></g></svg>